<?xml version="1.0" encoding="UTF-8" standalone="no"?>
<!DOCTYPE svg PUBLIC "-//W3C//DTD SVG 1.1//EN" "http://www.w3.org/Graphics/SVG/1.1/DTD/svg11.dtd">
<svg width="100%" height="100%" viewBox="0 0 132 42" version="1.1" xmlns="http://www.w3.org/2000/svg" xmlns:xlink="http://www.w3.org/1999/xlink" xml:space="preserve" xmlns:serif="http://www.serif.com/" style="fill-rule:evenodd;clip-rule:evenodd;">
    <path d="M1.451,0.664L116.594,0.664C124.602,0.664 131.094,7.156 131.094,15.164L131.094,41.338L15.951,41.338C7.943,41.338 1.451,34.846 1.451,26.838L1.451,0.664Z" style="fill-rule:nonzero;stroke:rgb(172,172,172);stroke-width:1px;"/>
    <path d="M18.569,24.033C22.082,26.878 27.106,26.878 30.619,24.033L29.261,22.356C26.54,24.559 22.648,24.559 19.927,22.356L18.569,24.033Z" style="fill:white;fill-rule:nonzero;"/>
    <rect x="20.032" y="17.424" width="2.158" height="2.916" style="fill:white;fill-rule:nonzero;"/>
    <rect x="26.73" y="17.424" width="2.158" height="2.916" style="fill:white;fill-rule:nonzero;"/>
    <path d="M35.839,21.34C35.839,27.777 30.621,32.996 24.183,32.996C17.746,32.996 12.527,27.777 12.527,21.34C12.527,14.902 17.746,9.684 24.183,9.684C30.621,9.684 35.839,14.902 35.839,21.34ZM33.681,21.34C33.681,26.585 29.429,30.837 24.183,30.837C18.938,30.837 14.686,26.585 14.686,21.34C14.686,16.094 18.938,11.842 24.183,11.842C29.429,11.842 33.681,16.094 33.681,21.34Z" style="fill:white;"/>
    <path d="M48.72,22.212C49.708,22.212 50.515,22.473 51.141,22.993C51.772,23.508 52.088,24.364 52.088,25.563L52.088,32.002L49.527,32.002L49.527,26.186C49.527,25.683 49.459,25.297 49.325,25.028C49.079,24.537 48.612,24.291 47.921,24.291C47.073,24.291 46.492,24.651 46.176,25.37C46.012,25.75 45.93,26.236 45.93,26.827L45.93,32.002L43.439,32.002L43.439,22.458L45.851,22.458L45.851,23.853C46.173,23.361 46.477,23.008 46.763,22.791C47.278,22.405 47.93,22.212 48.72,22.212Z" style="fill:white;fill-rule:nonzero;"/>
    <path d="M57.975,30.239C58.706,30.239 59.268,29.979 59.659,29.458C60.051,28.938 60.247,28.198 60.247,27.239C60.247,26.28 60.051,25.543 59.659,25.028C59.268,24.508 58.706,24.247 57.975,24.247C57.244,24.247 56.68,24.508 56.282,25.028C55.89,25.543 55.694,26.28 55.694,27.239C55.694,28.198 55.89,28.938 56.282,29.458C56.68,29.979 57.244,30.239 57.975,30.239ZM62.87,27.239C62.87,28.642 62.467,29.844 61.659,30.844C60.852,31.838 59.627,32.335 57.984,32.335C56.341,32.335 55.115,31.838 54.308,30.844C53.501,29.844 53.098,28.642 53.098,27.239C53.098,25.859 53.501,24.663 54.308,23.651C55.115,22.639 56.341,22.133 57.984,22.133C59.627,22.133 60.852,22.639 61.659,23.651C62.467,24.663 62.87,25.859 62.87,27.239Z" style="fill:white;fill-rule:nonzero;"/>
    <path d="M62.967,24.309L62.967,22.528L64.301,22.528L64.301,19.861L66.774,19.861L66.774,22.528L68.327,22.528L68.327,24.309L66.774,24.309L66.774,29.362C66.774,29.754 66.824,29.999 66.924,30.099C67.023,30.192 67.327,30.239 67.836,30.239L68.073,30.239C68.16,30.233 68.245,30.227 68.327,30.221L68.327,32.09L67.143,32.134C65.962,32.175 65.154,31.97 64.722,31.52C64.441,31.233 64.301,30.792 64.301,30.195L64.301,24.309L62.967,24.309Z" style="fill:white;fill-rule:nonzero;"/>
    <path d="M77.984,22.23C79.241,22.23 80.224,22.683 80.931,23.59C81.645,24.496 82.001,25.666 82.001,27.098C82.001,28.584 81.65,29.815 80.949,30.792C80.247,31.768 79.267,32.257 78.01,32.257C77.22,32.257 76.586,32.099 76.106,31.783C75.82,31.596 75.51,31.268 75.177,30.8L75.177,32.002L72.729,32.002L72.729,19.089L75.22,19.089L75.22,23.686C75.536,23.241 75.884,22.902 76.264,22.668C76.715,22.376 77.288,22.23 77.984,22.23ZM77.343,30.195C77.987,30.195 78.487,29.935 78.843,29.414C79.2,28.894 79.378,28.21 79.378,27.362C79.378,26.683 79.291,26.122 79.115,25.677C78.782,24.835 78.168,24.414 77.273,24.414C76.367,24.414 75.744,24.826 75.405,25.651C75.229,26.09 75.141,26.657 75.141,27.353C75.141,28.172 75.323,28.85 75.685,29.388C76.048,29.926 76.601,30.195 77.343,30.195Z" style="fill:white;fill-rule:nonzero;"/>
    <path d="M83.467,33.836L83.783,33.853C84.028,33.865 84.262,33.856 84.485,33.827C84.707,33.798 84.894,33.73 85.046,33.625C85.192,33.526 85.327,33.318 85.45,33.002C85.578,32.686 85.631,32.493 85.607,32.423L82.099,22.44L84.879,22.44L86.967,29.493L88.941,22.44L91.599,22.44L88.318,31.844C87.686,33.657 87.186,34.78 86.818,35.213C86.45,35.651 85.713,35.871 84.607,35.871C84.385,35.871 84.207,35.868 84.072,35.862C83.938,35.862 83.736,35.853 83.467,35.836L83.467,33.836Z" style="fill:white;fill-rule:nonzero;"/>
    <path d="M98.131,27.116L101.412,27.116L99.798,22.028L98.131,27.116ZM98.298,19.072L101.351,19.072L105.93,32.002L103,32.002L102.167,29.344L97.403,29.344L96.508,32.002L93.684,32.002L98.298,19.072Z" style="fill:white;fill-rule:nonzero;"/>
    <rect x="108.233" y="19.072" width="2.684" height="12.93" style="fill:white;fill-rule:nonzero;"/>
    <rect x="106.64" y="19.072" width="5.685" height="2.199" style="fill:white;fill-rule:nonzero;"/>
    <rect x="106.64" y="29.806" width="5.685" height="2.199" style="fill:white;fill-rule:nonzero;"/>
    <path d="M43.471,9.852L44.484,14L45.511,9.852L46.504,9.852L47.536,13.976L48.612,9.852L49.497,9.852L47.969,15.116L47.05,15.116L45.978,11.041L44.941,15.116L44.022,15.116L42.503,9.852L43.471,9.852Z" style="fill:white;fill-rule:nonzero;"/>
    <path d="M50.262,9.852L51.102,9.852L51.102,10.761C51.171,10.584 51.34,10.37 51.608,10.118C51.877,9.862 52.187,9.734 52.537,9.734C52.554,9.734 52.582,9.736 52.621,9.739C52.66,9.742 52.727,9.749 52.822,9.759L52.822,10.693C52.77,10.683 52.721,10.676 52.675,10.673C52.632,10.67 52.585,10.668 52.532,10.668C52.087,10.668 51.744,10.812 51.505,11.101C51.266,11.386 51.146,11.715 51.146,12.088L51.146,15.116L50.262,15.116L50.262,9.852Z" style="fill:white;fill-rule:nonzero;"/>
    <path d="M53.489,9.877L54.388,9.877L54.388,15.116L53.489,15.116L53.489,9.877ZM53.489,7.896L54.388,7.896L54.388,8.899L53.489,8.899L53.489,7.896Z" style="fill:white;fill-rule:nonzero;"/>
    <path d="M55.806,8.382L56.701,8.382L56.701,9.852L57.541,9.852L57.541,10.575L56.701,10.575L56.701,14.01C56.701,14.194 56.763,14.317 56.887,14.379C56.956,14.415 57.071,14.433 57.231,14.433L57.369,14.433C57.418,14.43 57.475,14.425 57.541,14.418L57.541,15.116C57.44,15.146 57.333,15.167 57.222,15.18C57.114,15.193 56.996,15.2 56.868,15.2C56.455,15.2 56.175,15.095 56.027,14.885C55.88,14.672 55.806,14.397 55.806,14.059L55.806,10.575L55.093,10.575L55.093,9.852L55.806,9.852L55.806,8.382Z" style="fill:white;fill-rule:nonzero;"/>
    <path d="M58.507,8.382L59.402,8.382L59.402,9.852L60.242,9.852L60.242,10.575L59.402,10.575L59.402,14.01C59.402,14.194 59.464,14.317 59.588,14.379C59.657,14.415 59.772,14.433 59.932,14.433L60.07,14.433C60.119,14.43 60.176,14.425 60.242,14.418L60.242,15.116C60.14,15.146 60.034,15.167 59.923,15.18C59.814,15.193 59.696,15.2 59.569,15.2C59.156,15.2 58.876,15.095 58.728,14.885C58.581,14.672 58.507,14.397 58.507,14.059L58.507,10.575L57.794,10.575L57.794,9.852L58.507,9.852L58.507,8.382Z" style="fill:white;fill-rule:nonzero;"/>
    <path d="M63.223,9.734C63.597,9.734 63.959,9.823 64.309,10C64.66,10.173 64.927,10.399 65.111,10.678C65.287,10.943 65.405,11.253 65.464,11.607C65.517,11.849 65.543,12.236 65.543,12.767L61.685,12.767C61.701,13.301 61.827,13.73 62.063,14.055C62.299,14.376 62.664,14.536 63.159,14.536C63.621,14.536 63.99,14.384 64.265,14.079C64.422,13.902 64.534,13.697 64.599,13.465L65.469,13.465C65.446,13.658 65.369,13.874 65.238,14.113C65.111,14.349 64.966,14.543 64.806,14.693C64.537,14.956 64.204,15.133 63.808,15.224C63.595,15.277 63.354,15.303 63.086,15.303C62.43,15.303 61.875,15.065 61.419,14.59C60.964,14.112 60.736,13.443 60.736,12.585C60.736,11.74 60.965,11.053 61.424,10.525C61.883,9.998 62.483,9.734 63.223,9.734ZM64.634,12.064C64.598,11.681 64.514,11.374 64.383,11.145C64.141,10.719 63.736,10.506 63.169,10.506C62.763,10.506 62.422,10.653 62.147,10.948C61.871,11.24 61.726,11.612 61.709,12.064L64.634,12.064Z" style="fill:white;fill-rule:nonzero;"/>
    <path d="M66.534,9.852L67.374,9.852L67.374,10.599C67.623,10.291 67.887,10.07 68.165,9.936C68.444,9.801 68.754,9.734 69.094,9.734C69.841,9.734 70.346,9.995 70.608,10.516C70.752,10.801 70.824,11.209 70.824,11.74L70.824,15.116L69.925,15.116L69.925,11.798C69.925,11.477 69.877,11.219 69.782,11.022C69.625,10.694 69.34,10.53 68.927,10.53C68.718,10.53 68.545,10.552 68.411,10.594C68.169,10.666 67.956,10.811 67.772,11.027C67.625,11.2 67.528,11.381 67.482,11.567C67.44,11.751 67.418,12.015 67.418,12.359L67.418,15.116L66.534,15.116L66.534,9.852Z" style="fill:white;fill-rule:nonzero;"/>
    <path d="M74.668,7.871L75.528,7.871L75.528,10.491C75.722,10.239 75.953,10.047 76.221,9.916C76.49,9.782 76.782,9.714 77.096,9.714C77.752,9.714 78.282,9.941 78.689,10.393C79.098,10.842 79.303,11.505 79.303,12.383C79.303,13.216 79.102,13.907 78.699,14.458C78.296,15.008 77.737,15.283 77.022,15.283C76.623,15.283 76.285,15.187 76.01,14.993C75.846,14.879 75.671,14.695 75.484,14.443L75.484,15.116L74.668,15.116L74.668,7.871ZM76.969,14.502C77.447,14.502 77.804,14.312 78.04,13.932C78.279,13.552 78.399,13.05 78.399,12.428C78.399,11.874 78.279,11.415 78.04,11.051C77.804,10.688 77.455,10.506 76.993,10.506C76.59,10.506 76.236,10.655 75.931,10.953C75.63,11.251 75.479,11.743 75.479,12.428C75.479,12.922 75.541,13.324 75.666,13.632C75.899,14.212 76.333,14.502 76.969,14.502Z" style="fill:white;fill-rule:nonzero;"/>
    <path d="M83.528,9.852L84.506,9.852C84.381,10.19 84.104,10.96 83.675,12.162C83.354,13.067 83.085,13.804 82.869,14.374C82.358,15.717 81.998,16.537 81.788,16.831C81.578,17.126 81.218,17.274 80.707,17.274C80.582,17.274 80.485,17.269 80.417,17.259C80.351,17.249 80.269,17.231 80.171,17.205L80.171,16.399C80.325,16.442 80.436,16.468 80.505,16.478C80.574,16.487 80.634,16.492 80.687,16.492C80.851,16.492 80.97,16.465 81.046,16.409C81.124,16.356 81.19,16.291 81.242,16.212C81.259,16.186 81.318,16.052 81.419,15.809C81.521,15.567 81.595,15.386 81.64,15.269L79.694,9.852L80.697,9.852L82.107,14.138L83.528,9.852Z" style="fill:white;fill-rule:nonzero;"/>
    <path d="M87.873,7.871L88.758,7.871L88.758,10.565C88.967,10.299 89.156,10.113 89.323,10.004C89.608,9.818 89.963,9.724 90.389,9.724C91.153,9.724 91.671,9.991 91.943,10.525C92.09,10.817 92.164,11.222 92.164,11.74L92.164,15.116L91.254,15.116L91.254,11.798C91.254,11.412 91.205,11.128 91.107,10.948C90.946,10.66 90.645,10.516 90.203,10.516C89.836,10.516 89.503,10.642 89.205,10.894C88.907,11.146 88.758,11.623 88.758,12.324L88.758,15.116L87.873,15.116L87.873,7.871Z" style="fill:white;fill-rule:nonzero;"/>
    <path d="M94.26,9.852L94.26,13.347C94.26,13.615 94.303,13.835 94.388,14.005C94.545,14.32 94.839,14.477 95.268,14.477C95.884,14.477 96.303,14.202 96.526,13.651C96.647,13.357 96.708,12.952 96.708,12.437L96.708,9.852L97.593,9.852L97.593,15.116L96.757,15.116L96.767,14.339C96.652,14.539 96.51,14.708 96.339,14.846C96.002,15.121 95.592,15.259 95.11,15.259C94.36,15.259 93.849,15.008 93.577,14.507C93.43,14.238 93.356,13.879 93.356,13.43L93.356,9.852L94.26,9.852Z" style="fill:white;fill-rule:nonzero;"/>
    <path d="M98.878,9.852L99.753,9.852L99.753,10.599C99.963,10.34 100.153,10.152 100.323,10.034C100.615,9.834 100.946,9.734 101.316,9.734C101.735,9.734 102.073,9.837 102.328,10.044C102.473,10.162 102.604,10.335 102.722,10.565C102.918,10.283 103.149,10.075 103.415,9.941C103.68,9.803 103.978,9.734 104.309,9.734C105.017,9.734 105.499,9.99 105.754,10.501C105.892,10.776 105.961,11.146 105.961,11.612L105.961,15.116L105.041,15.116L105.041,11.459C105.041,11.109 104.953,10.868 104.776,10.737C104.602,10.606 104.389,10.54 104.137,10.54C103.79,10.54 103.49,10.657 103.238,10.889C102.989,11.122 102.864,11.51 102.864,12.054L102.864,15.116L101.965,15.116L101.965,11.681C101.965,11.323 101.922,11.063 101.837,10.899C101.702,10.653 101.452,10.53 101.085,10.53C100.751,10.53 100.446,10.66 100.171,10.919C99.899,11.178 99.763,11.646 99.763,12.324L99.763,15.116L98.878,15.116L98.878,9.852Z" style="fill:white;fill-rule:nonzero;"/>
    <path d="M107.841,13.715C107.841,13.971 107.934,14.172 108.121,14.32C108.308,14.467 108.529,14.541 108.784,14.541C109.096,14.541 109.397,14.469 109.689,14.325C110.18,14.086 110.426,13.694 110.426,13.15L110.426,12.437C110.318,12.506 110.179,12.564 110.008,12.609C109.838,12.655 109.671,12.688 109.507,12.708L108.971,12.777C108.65,12.819 108.409,12.886 108.249,12.978C107.977,13.132 107.841,13.378 107.841,13.715ZM109.984,11.926C110.187,11.9 110.323,11.815 110.392,11.671C110.431,11.592 110.451,11.479 110.451,11.332C110.451,11.03 110.343,10.812 110.126,10.678C109.913,10.54 109.607,10.471 109.207,10.471C108.745,10.471 108.417,10.596 108.224,10.845C108.116,10.983 108.046,11.187 108.013,11.459L107.187,11.459C107.203,10.811 107.413,10.36 107.816,10.108C108.222,9.852 108.693,9.724 109.227,9.724C109.846,9.724 110.349,9.842 110.736,10.078C111.119,10.314 111.311,10.681 111.311,11.179L111.311,14.212C111.311,14.304 111.329,14.377 111.365,14.433C111.404,14.489 111.484,14.517 111.606,14.517C111.645,14.517 111.689,14.515 111.738,14.512C111.788,14.505 111.84,14.497 111.896,14.487L111.896,15.141C111.758,15.18 111.653,15.205 111.581,15.214C111.509,15.224 111.411,15.229 111.286,15.229C110.981,15.229 110.76,15.121 110.623,14.905C110.551,14.79 110.5,14.628 110.47,14.418C110.29,14.654 110.031,14.859 109.694,15.033C109.356,15.206 108.984,15.293 108.578,15.293C108.09,15.293 107.69,15.146 107.379,14.851C107.071,14.553 106.917,14.181 106.917,13.735C106.917,13.247 107.069,12.868 107.374,12.6C107.679,12.331 108.078,12.165 108.573,12.103L109.984,11.926Z" style="fill:white;fill-rule:nonzero;"/>
    <path d="M112.665,9.852L113.505,9.852L113.505,10.599C113.754,10.291 114.018,10.07 114.297,9.936C114.575,9.801 114.885,9.734 115.226,9.734C115.973,9.734 116.477,9.995 116.74,10.516C116.884,10.801 116.956,11.209 116.956,11.74L116.956,15.116L116.056,15.116L116.056,11.798C116.056,11.477 116.009,11.219 115.914,11.022C115.757,10.694 115.471,10.53 115.059,10.53C114.849,10.53 114.677,10.552 114.543,10.594C114.3,10.666 114.087,10.811 113.904,11.027C113.756,11.2 113.659,11.381 113.614,11.567C113.571,11.751 113.55,12.015 113.55,12.359L113.55,15.116L112.665,15.116L112.665,9.852Z" style="fill:white;fill-rule:nonzero;"/>
</svg>
