<?xml version="1.0" encoding="UTF-8" standalone="no"?>
<!DOCTYPE svg PUBLIC "-//W3C//DTD SVG 1.1//EN" "http://www.w3.org/Graphics/SVG/1.1/DTD/svg11.dtd">
<svg width="100%" height="100%" viewBox="0 0 143 43" version="1.1" xmlns="http://www.w3.org/2000/svg" xmlns:xlink="http://www.w3.org/1999/xlink" xml:space="preserve" xmlns:serif="http://www.serif.com/" style="fill-rule:evenodd;clip-rule:evenodd;">
    <g transform="matrix(1.08485,0,0,1,-0.085097,0)">
        <path d="M1.003,0.647L116.146,0.647C124.155,0.647 130.646,7.139 130.646,15.147L130.646,41.321L14.581,41.321C6.573,41.321 1.003,34.829 1.003,26.821L1.003,0.647Z" style="fill-rule:nonzero;stroke:rgb(172,172,172);stroke-width:1px;"/>
    </g>
    <g transform="matrix(1,0,0,1,-7,-1)">
        <g transform="matrix(10,0,0,10,86,17.1631)">
            <path d="M0.406,-0L0.406,-0.076C0.365,-0.018 0.311,0.012 0.241,0.012C0.211,0.012 0.182,0.006 0.156,-0.006C0.129,-0.018 0.109,-0.032 0.096,-0.05C0.084,-0.068 0.075,-0.09 0.069,-0.115C0.066,-0.132 0.064,-0.16 0.064,-0.197L0.064,-0.519L0.152,-0.519L0.152,-0.231C0.152,-0.185 0.154,-0.154 0.157,-0.138C0.163,-0.115 0.174,-0.097 0.192,-0.084C0.21,-0.071 0.232,-0.064 0.259,-0.064C0.285,-0.064 0.31,-0.071 0.333,-0.084C0.356,-0.098 0.372,-0.116 0.382,-0.139C0.392,-0.163 0.396,-0.196 0.396,-0.241L0.396,-0.519L0.484,-0.519L0.484,-0L0.406,-0Z" style="fill:white;fill-opacity:0.96;fill-rule:nonzero;"/>
        </g>
        <g transform="matrix(10,0,0,10,91.5615,17.1631)">
            <path d="M0.066,-0L0.066,-0.519L0.145,-0.519L0.145,-0.445C0.183,-0.502 0.238,-0.53 0.31,-0.53C0.341,-0.53 0.37,-0.525 0.396,-0.513C0.422,-0.502 0.442,-0.487 0.455,-0.469C0.468,-0.451 0.477,-0.429 0.482,-0.404C0.486,-0.388 0.487,-0.36 0.487,-0.319L0.487,-0L0.399,-0L0.399,-0.315C0.399,-0.351 0.396,-0.378 0.389,-0.396C0.382,-0.413 0.37,-0.428 0.353,-0.438C0.335,-0.449 0.315,-0.454 0.292,-0.454C0.254,-0.454 0.222,-0.442 0.195,-0.418C0.167,-0.395 0.154,-0.35 0.154,-0.283L0.154,-0L0.066,-0Z" style="fill:white;fill-opacity:0.96;fill-rule:nonzero;"/>
        </g>
        <g transform="matrix(10,0,0,10,97.123,17.1631)">
            <path d="M0.421,-0.167L0.512,-0.156C0.497,-0.103 0.471,-0.062 0.432,-0.032C0.393,-0.003 0.344,0.012 0.284,0.012C0.208,0.012 0.148,-0.012 0.103,-0.058C0.059,-0.105 0.037,-0.171 0.037,-0.255C0.037,-0.342 0.059,-0.41 0.104,-0.458C0.149,-0.506 0.207,-0.53 0.279,-0.53C0.348,-0.53 0.405,-0.507 0.449,-0.459C0.493,-0.412 0.515,-0.346 0.515,-0.26C0.515,-0.255 0.514,-0.247 0.514,-0.237L0.127,-0.237C0.131,-0.18 0.147,-0.136 0.176,-0.106C0.205,-0.076 0.241,-0.061 0.284,-0.061C0.316,-0.061 0.344,-0.069 0.367,-0.086C0.389,-0.103 0.408,-0.13 0.421,-0.167ZM0.132,-0.309L0.422,-0.309C0.418,-0.353 0.407,-0.385 0.389,-0.407C0.361,-0.441 0.324,-0.458 0.28,-0.458C0.239,-0.458 0.205,-0.444 0.178,-0.417C0.15,-0.39 0.135,-0.354 0.132,-0.309Z" style="fill:white;fill-opacity:0.96;fill-rule:nonzero;"/>
        </g>
        <g transform="matrix(10,0,0,10,105.463,17.1631)">
            <path d="M0.087,-0L0.087,-0.45L0.009,-0.45L0.009,-0.519L0.087,-0.519L0.087,-0.574C0.087,-0.609 0.09,-0.634 0.096,-0.651C0.105,-0.674 0.12,-0.693 0.141,-0.707C0.162,-0.721 0.192,-0.728 0.23,-0.728C0.255,-0.728 0.283,-0.725 0.313,-0.719L0.299,-0.643C0.281,-0.646 0.264,-0.647 0.248,-0.647C0.221,-0.647 0.202,-0.642 0.191,-0.63C0.18,-0.619 0.174,-0.598 0.174,-0.566L0.174,-0.519L0.275,-0.519L0.275,-0.45L0.174,-0.45L0.174,-0L0.087,-0Z" style="fill:white;fill-opacity:0.96;fill-rule:nonzero;"/>
        </g>
        <g transform="matrix(10,0,0,10,108.241,17.1631)">
            <path d="M0.421,-0.167L0.512,-0.156C0.497,-0.103 0.471,-0.062 0.432,-0.032C0.393,-0.003 0.344,0.012 0.284,0.012C0.208,0.012 0.148,-0.012 0.103,-0.058C0.059,-0.105 0.037,-0.171 0.037,-0.255C0.037,-0.342 0.059,-0.41 0.104,-0.458C0.149,-0.506 0.207,-0.53 0.279,-0.53C0.348,-0.53 0.405,-0.507 0.449,-0.459C0.493,-0.412 0.515,-0.346 0.515,-0.26C0.515,-0.255 0.514,-0.247 0.514,-0.237L0.127,-0.237C0.131,-0.18 0.147,-0.136 0.176,-0.106C0.205,-0.076 0.241,-0.061 0.284,-0.061C0.316,-0.061 0.344,-0.069 0.367,-0.086C0.389,-0.103 0.408,-0.13 0.421,-0.167ZM0.132,-0.309L0.422,-0.309C0.418,-0.353 0.407,-0.385 0.389,-0.407C0.361,-0.441 0.324,-0.458 0.28,-0.458C0.239,-0.458 0.205,-0.444 0.178,-0.417C0.15,-0.39 0.135,-0.354 0.132,-0.309Z" style="fill:white;fill-opacity:0.96;fill-rule:nonzero;"/>
        </g>
        <g transform="matrix(10,0,0,10,113.803,17.1631)">
            <path d="M0.066,-0L0.066,-0.519L0.145,-0.519L0.145,-0.446C0.161,-0.471 0.182,-0.492 0.209,-0.507C0.236,-0.523 0.267,-0.53 0.302,-0.53C0.34,-0.53 0.372,-0.522 0.396,-0.506C0.421,-0.49 0.438,-0.468 0.448,-0.439C0.489,-0.5 0.543,-0.53 0.608,-0.53C0.66,-0.53 0.699,-0.516 0.727,-0.488C0.755,-0.459 0.769,-0.415 0.769,-0.356L0.769,-0L0.681,-0L0.681,-0.327C0.681,-0.362 0.678,-0.387 0.673,-0.403C0.667,-0.418 0.657,-0.431 0.642,-0.44C0.627,-0.449 0.609,-0.454 0.589,-0.454C0.552,-0.454 0.522,-0.442 0.498,-0.418C0.474,-0.393 0.462,-0.355 0.462,-0.301L0.462,-0L0.374,-0L0.374,-0.337C0.374,-0.376 0.367,-0.405 0.353,-0.425C0.338,-0.444 0.315,-0.454 0.282,-0.454C0.257,-0.454 0.235,-0.448 0.214,-0.435C0.193,-0.422 0.177,-0.403 0.168,-0.377C0.159,-0.352 0.154,-0.316 0.154,-0.269L0.154,-0L0.066,-0Z" style="fill:white;fill-opacity:0.96;fill-rule:nonzero;"/>
        </g>
        <g transform="matrix(10,0,0,10,122.133,17.1631)">
            <path d="M0.066,-0L0.066,-0.519L0.145,-0.519L0.145,-0.446C0.161,-0.471 0.182,-0.492 0.209,-0.507C0.236,-0.523 0.267,-0.53 0.302,-0.53C0.34,-0.53 0.372,-0.522 0.396,-0.506C0.421,-0.49 0.438,-0.468 0.448,-0.439C0.489,-0.5 0.543,-0.53 0.608,-0.53C0.66,-0.53 0.699,-0.516 0.727,-0.488C0.755,-0.459 0.769,-0.415 0.769,-0.356L0.769,-0L0.681,-0L0.681,-0.327C0.681,-0.362 0.678,-0.387 0.673,-0.403C0.667,-0.418 0.657,-0.431 0.642,-0.44C0.627,-0.449 0.609,-0.454 0.589,-0.454C0.552,-0.454 0.522,-0.442 0.498,-0.418C0.474,-0.393 0.462,-0.355 0.462,-0.301L0.462,-0L0.374,-0L0.374,-0.337C0.374,-0.376 0.367,-0.405 0.353,-0.425C0.338,-0.444 0.315,-0.454 0.282,-0.454C0.257,-0.454 0.235,-0.448 0.214,-0.435C0.193,-0.422 0.177,-0.403 0.168,-0.377C0.159,-0.352 0.154,-0.316 0.154,-0.269L0.154,-0L0.066,-0Z" style="fill:white;fill-opacity:0.96;fill-rule:nonzero;"/>
        </g>
        <g transform="matrix(10,0,0,10,130.463,17.1631)">
            <path d="M0.421,-0.167L0.512,-0.156C0.497,-0.103 0.471,-0.062 0.432,-0.032C0.393,-0.003 0.344,0.012 0.284,0.012C0.208,0.012 0.148,-0.012 0.103,-0.058C0.059,-0.105 0.037,-0.171 0.037,-0.255C0.037,-0.342 0.059,-0.41 0.104,-0.458C0.149,-0.506 0.207,-0.53 0.279,-0.53C0.348,-0.53 0.405,-0.507 0.449,-0.459C0.493,-0.412 0.515,-0.346 0.515,-0.26C0.515,-0.255 0.514,-0.247 0.514,-0.237L0.127,-0.237C0.131,-0.18 0.147,-0.136 0.176,-0.106C0.205,-0.076 0.241,-0.061 0.284,-0.061C0.316,-0.061 0.344,-0.069 0.367,-0.086C0.389,-0.103 0.408,-0.13 0.421,-0.167ZM0.132,-0.309L0.422,-0.309C0.418,-0.353 0.407,-0.385 0.389,-0.407C0.361,-0.441 0.324,-0.458 0.28,-0.458C0.239,-0.458 0.205,-0.444 0.178,-0.417C0.15,-0.39 0.135,-0.354 0.132,-0.309Z" style="fill:white;fill-opacity:0.96;fill-rule:nonzero;"/>
        </g>
    </g>
    <g transform="matrix(1,0,0,1,6,0)">
        <path d="M104.171,24.295L104.606,18.897L102.229,18.897L102.664,24.295L104.171,24.295Z" style="fill:white;fill-rule:nonzero;"/>
    </g>
    <g transform="matrix(1,0,0,1,6,0)">
        <rect x="99.06" y="18.897" width="2.482" height="13.065" style="fill:white;fill-rule:nonzero;"/>
    </g>
    <g transform="matrix(1,0,0,1,6,0)">
        <path d="M105.305,19.055L110.889,19.055L110.889,21.254L109.506,21.254L109.506,29.789L110.889,29.789L110.889,31.988L105.305,31.988L105.305,29.789L106.869,29.789L106.869,21.254L105.305,21.254L105.305,19.055Z" style="fill:white;fill-rule:nonzero;"/>
    </g>
    <g transform="matrix(1,0,0,1,6,0)">
        <path d="M118.964,19.055L115.965,19.055L111.432,31.985L114.207,31.985L115.086,29.327L119.765,29.327L120.584,31.985L123.462,31.985L118.964,19.055ZM119.024,27.099L115.801,27.099L117.439,22.011L119.024,27.099Z" style="fill:white;"/>
    </g>
    <path d="M63.349,29.834C63.175,29.645 63.062,29.326 63.01,28.877L60.493,28.877C60.493,29.87 60.847,30.688 61.556,31.332C62.27,31.971 63.372,32.29 64.864,32.29C66.327,32.29 67.407,31.988 68.103,31.386C68.806,30.777 69.157,29.994 69.157,29.037C69.157,28.31 68.913,27.704 68.426,27.22C67.932,26.741 67.192,26.384 66.205,26.147C64.725,25.816 63.863,25.583 63.619,25.447C63.375,25.317 63.253,25.107 63.253,24.818C63.253,24.587 63.367,24.386 63.593,24.215C63.825,24.044 64.211,23.958 64.751,23.958C65.407,23.958 65.871,24.129 66.144,24.472C66.289,24.661 66.379,24.918 66.414,25.243L68.896,25.243C68.785,24.061 68.356,23.231 67.607,22.752C66.864,22.268 65.9,22.026 64.716,22.026C63.468,22.026 62.499,22.348 61.808,22.992C61.123,23.63 60.781,24.395 60.781,25.287C60.781,26.044 61.001,26.623 61.442,27.025C61.883,27.432 62.641,27.772 63.715,28.044C65.207,28.404 66.069,28.659 66.301,28.806C66.533,28.954 66.649,29.17 66.649,29.453C66.649,29.749 66.504,29.97 66.214,30.118C65.929,30.266 65.543,30.34 65.056,30.34C64.226,30.34 63.657,30.171 63.349,29.834Z" style="fill:white;fill-rule:nonzero;"/>
    <path d="M55.769,26.085C56.227,26.026 56.555,25.952 56.753,25.864C57.107,25.71 57.284,25.471 57.284,25.146C57.284,24.75 57.147,24.478 56.874,24.33C56.607,24.177 56.213,24.1 55.69,24.1C55.104,24.1 54.689,24.247 54.445,24.543C54.271,24.762 54.155,25.057 54.097,25.429L51.702,25.429C51.755,24.584 51.987,23.89 52.399,23.346C53.055,22.495 54.181,22.07 55.777,22.07C56.816,22.07 57.739,22.28 58.546,22.699C59.353,23.119 59.757,23.911 59.757,25.075L59.757,29.507C59.757,29.814 59.762,30.186 59.774,30.623C59.791,30.954 59.841,31.179 59.922,31.297C60.003,31.415 60.125,31.513 60.288,31.589L60.288,31.962L57.588,31.962C57.513,31.767 57.461,31.584 57.432,31.412C57.403,31.241 57.379,31.046 57.362,30.827C57.02,31.205 56.625,31.527 56.178,31.793C55.644,32.106 55.04,32.263 54.367,32.263C53.508,32.263 52.797,32.015 52.233,31.519C51.676,31.016 51.398,30.307 51.398,29.391C51.398,28.203 51.847,27.344 52.747,26.812C53.241,26.522 53.966,26.316 54.924,26.192L55.769,26.085ZM57.275,27.264C57.118,27.365 56.959,27.447 56.796,27.512C56.639,27.571 56.422,27.627 56.143,27.681L55.586,27.787C55.063,27.882 54.689,27.997 54.463,28.133C54.079,28.363 53.888,28.721 53.888,29.205C53.888,29.637 54.004,29.95 54.236,30.145C54.474,30.334 54.761,30.428 55.098,30.428C55.632,30.428 56.123,30.269 56.57,29.95C57.022,29.631 57.258,29.049 57.275,28.203L57.275,27.264Z" style="fill:white;"/>
    <path d="M47.161,22.088C48.269,22.088 49.207,22.504 49.973,23.337C50.745,24.171 51.131,25.394 51.131,27.007C51.131,28.709 50.754,30.006 49.999,30.898C49.25,31.79 48.284,32.237 47.1,32.237C46.345,32.237 45.718,32.044 45.219,31.66C44.946,31.448 44.679,31.137 44.418,30.73L44.418,35.764L41.962,35.764L41.962,22.3L44.339,22.3L44.339,23.727C44.606,23.308 44.891,22.977 45.193,22.735C45.744,22.303 46.4,22.088 47.161,22.088ZM48.571,27.131C48.571,26.387 48.403,25.728 48.066,25.155C47.735,24.581 47.195,24.295 46.447,24.295C45.547,24.295 44.929,24.729 44.592,25.598C44.418,26.059 44.331,26.644 44.331,27.353C44.331,28.475 44.624,29.264 45.21,29.719C45.558,29.985 45.971,30.118 46.447,30.118C47.137,30.118 47.663,29.846 48.023,29.303C48.388,28.759 48.571,28.035 48.571,27.131Z" style="fill:white;"/>
    <g transform="matrix(1,0,0,1,3,0)">
        <path d="M86.443,25.863C86.245,25.952 85.917,26.026 85.459,26.085L84.614,26.191C83.656,26.316 82.931,26.522 82.437,26.812C81.538,27.344 81.088,28.203 81.088,29.391C81.088,30.307 81.366,31.016 81.924,31.519C82.487,32.015 83.198,32.263 84.057,32.263C84.73,32.263 85.334,32.106 85.868,31.793C86.315,31.527 86.71,31.205 87.052,30.827C87.07,31.046 87.093,31.241 87.122,31.412C87.151,31.584 87.203,31.767 87.279,31.962L89.978,31.962L89.978,31.589C89.815,31.513 89.693,31.415 89.612,31.297C89.531,31.179 89.482,30.954 89.464,30.623C89.453,30.186 89.447,29.814 89.447,29.506L89.447,25.075C89.447,23.911 89.043,23.119 88.236,22.699C87.43,22.28 86.507,22.07 85.468,22.07C83.871,22.07 82.745,22.495 82.089,23.346C81.677,23.89 81.445,24.584 81.393,25.429L83.787,25.429C83.845,25.057 83.961,24.762 84.135,24.543C84.379,24.247 84.794,24.1 85.38,24.1C85.903,24.1 86.298,24.177 86.565,24.33C86.837,24.478 86.974,24.75 86.974,25.145C86.974,25.471 86.797,25.71 86.443,25.863ZM86.486,27.512C86.649,27.447 86.808,27.364 86.965,27.264L86.965,28.203C86.948,29.049 86.713,29.631 86.26,29.95C85.813,30.269 85.322,30.428 84.788,30.428C84.452,30.428 84.164,30.334 83.926,30.145C83.694,29.95 83.578,29.636 83.578,29.205C83.578,28.721 83.77,28.363 84.153,28.133C84.379,27.997 84.754,27.881 85.276,27.787L85.833,27.68C86.112,27.627 86.33,27.571 86.486,27.512Z" style="fill:white;"/>
    </g>
    <g transform="matrix(1,0,0,1,3,0)">
        <path d="M79.663,23.337C78.897,22.504 77.96,22.088 76.851,22.088C76.09,22.088 75.434,22.303 74.883,22.735C74.581,22.977 74.297,23.308 74.03,23.727L74.03,22.3L71.653,22.3L71.653,35.764L74.108,35.764L74.108,30.73C74.369,31.137 74.636,31.448 74.909,31.66C75.408,32.044 76.035,32.236 76.79,32.236C77.974,32.236 78.941,31.79 79.689,30.898C80.444,30.006 80.821,28.709 80.821,27.007C80.821,25.394 80.435,24.171 79.663,23.337ZM77.756,25.154C78.093,25.728 78.261,26.386 78.261,27.131C78.261,28.035 78.079,28.759 77.713,29.303C77.353,29.846 76.828,30.118 76.137,30.118C75.661,30.118 75.249,29.985 74.9,29.719C74.314,29.264 74.021,28.475 74.021,27.353C74.021,26.644 74.108,26.058 74.282,25.598C74.619,24.729 75.237,24.295 76.137,24.295C76.886,24.295 77.425,24.581 77.756,25.154Z" style="fill:white;"/>
    </g>
    <g transform="matrix(1,0,0,1,3,0)">
        <path d="M95.921,22.07C95.968,22.07 96.006,22.073 96.035,22.079C96.07,22.079 96.142,22.082 96.252,22.088L96.252,24.676C96.096,24.658 95.956,24.646 95.834,24.64C95.713,24.634 95.614,24.632 95.538,24.632C94.54,24.632 93.87,24.962 93.527,25.624C93.335,25.997 93.24,26.57 93.24,27.344L93.24,31.962L90.741,31.962L90.741,22.3L93.109,22.3L93.109,23.984C93.492,23.34 93.826,22.9 94.11,22.664C94.575,22.268 95.179,22.07 95.921,22.07Z" style="fill:white;fill-rule:nonzero;"/>
    </g>
    <path d="M44.416,10.719C44.79,10.719 45.152,10.808 45.503,10.985C45.853,11.158 46.12,11.384 46.304,11.663C46.481,11.928 46.599,12.238 46.658,12.592C46.71,12.834 46.736,13.221 46.736,13.752L42.878,13.752C42.894,14.286 43.02,14.715 43.256,15.04C43.492,15.361 43.858,15.521 44.352,15.521C44.814,15.521 45.183,15.369 45.458,15.064C45.615,14.887 45.727,14.682 45.792,14.45L46.662,14.45C46.64,14.643 46.563,14.859 46.431,15.099C46.304,15.335 46.16,15.528 45.999,15.679C45.73,15.941 45.398,16.118 45.001,16.209C44.788,16.262 44.547,16.288 44.279,16.288C43.623,16.288 43.068,16.051 42.612,15.575C42.157,15.097 41.929,14.429 41.929,13.57C41.929,12.725 42.159,12.038 42.617,11.511C43.076,10.983 43.676,10.719 44.416,10.719ZM45.827,13.049C45.791,12.666 45.707,12.359 45.576,12.13C45.334,11.704 44.929,11.491 44.362,11.491C43.956,11.491 43.615,11.638 43.34,11.933C43.065,12.225 42.919,12.597 42.902,13.049L45.827,13.049ZM45.439,8.719L44.126,10.139L43.448,10.139L44.347,8.719L45.439,8.719Z" style="fill:white;fill-rule:nonzero;"/>
    <path d="M49.757,10.685C50.35,10.685 50.831,10.829 51.202,11.117C51.575,11.406 51.8,11.902 51.875,12.607L51.015,12.607C50.962,12.282 50.843,12.014 50.656,11.801C50.469,11.584 50.169,11.476 49.757,11.476C49.193,11.476 48.79,11.751 48.548,12.302C48.39,12.659 48.312,13.1 48.312,13.624C48.312,14.152 48.423,14.596 48.646,14.956C48.869,15.317 49.219,15.497 49.698,15.497C50.065,15.497 50.355,15.385 50.568,15.163C50.784,14.936 50.933,14.628 51.015,14.239L51.875,14.239C51.777,14.936 51.531,15.448 51.138,15.772C50.745,16.093 50.242,16.254 49.629,16.254C48.941,16.254 48.392,16.003 47.982,15.502C47.573,14.997 47.368,14.368 47.368,13.614C47.368,12.69 47.592,11.971 48.041,11.457C48.49,10.942 49.062,10.685 49.757,10.685Z" style="fill:white;fill-rule:nonzero;"/>
    <path d="M52.684,10.837L53.524,10.837L53.524,11.746C53.593,11.57 53.762,11.355 54.03,11.103C54.299,10.847 54.609,10.719 54.959,10.719C54.976,10.719 55.004,10.721 55.043,10.724C55.082,10.727 55.149,10.734 55.244,10.744L55.244,11.678C55.192,11.668 55.143,11.661 55.097,11.658C55.054,11.655 55.007,11.653 54.954,11.653C54.509,11.653 54.166,11.797 53.927,12.086C53.688,12.371 53.568,12.7 53.568,13.074L53.568,16.101L52.684,16.101L52.684,10.837Z" style="fill:white;fill-rule:nonzero;"/>
    <path d="M55.911,10.862L56.81,10.862L56.81,16.101L55.911,16.101L55.911,10.862ZM55.911,8.881L56.81,8.881L56.81,9.884L55.911,9.884L55.911,8.881Z" style="fill:white;fill-rule:nonzero;"/>
    <path d="M58.228,9.368L59.123,9.368L59.123,10.837L59.963,10.837L59.963,11.56L59.123,11.56L59.123,14.995C59.123,15.179 59.185,15.302 59.309,15.364C59.378,15.4 59.493,15.418 59.653,15.418L59.791,15.418C59.84,15.415 59.898,15.41 59.963,15.403L59.963,16.101C59.862,16.131 59.755,16.152 59.644,16.165C59.535,16.178 59.417,16.185 59.29,16.185C58.877,16.185 58.597,16.08 58.449,15.87C58.302,15.657 58.228,15.382 58.228,15.044L58.228,11.56L57.515,11.56L57.515,10.837L58.228,10.837L58.228,9.368Z" style="fill:white;fill-rule:nonzero;"/>
    <path d="M65.675,15.507C66.088,15.507 66.43,15.335 66.702,14.991C66.977,14.643 67.115,14.125 67.115,13.437C67.115,13.018 67.054,12.657 66.933,12.356C66.704,11.776 66.284,11.486 65.675,11.486C65.062,11.486 64.642,11.792 64.416,12.405C64.295,12.733 64.234,13.149 64.234,13.654C64.234,14.06 64.295,14.406 64.416,14.691C64.646,15.235 65.065,15.507 65.675,15.507ZM63.384,10.862L64.244,10.862L64.244,11.56C64.421,11.32 64.615,11.135 64.824,11.004C65.123,10.808 65.473,10.709 65.876,10.709C66.473,10.709 66.979,10.939 67.395,11.398C67.811,11.853 68.019,12.505 68.019,13.354C68.019,14.501 67.719,15.32 67.12,15.811C66.74,16.123 66.297,16.278 65.793,16.278C65.396,16.278 65.064,16.191 64.795,16.018C64.638,15.919 64.462,15.751 64.269,15.512L64.269,18.2L63.384,18.2L63.384,10.862Z" style="fill:white;fill-rule:nonzero;"/>
    <path d="M69.634,14.701C69.634,14.956 69.727,15.158 69.914,15.305C70.101,15.453 70.322,15.526 70.578,15.526C70.889,15.526 71.19,15.454 71.482,15.31C71.973,15.071 72.219,14.679 72.219,14.135L72.219,13.423C72.111,13.491 71.972,13.549 71.801,13.595C71.631,13.641 71.464,13.673 71.3,13.693L70.764,13.762C70.443,13.804 70.202,13.871 70.042,13.963C69.77,14.117 69.634,14.363 69.634,14.701ZM71.777,12.911C71.98,12.885 72.116,12.8 72.185,12.656C72.224,12.577 72.244,12.464 72.244,12.317C72.244,12.015 72.136,11.797 71.919,11.663C71.706,11.525 71.4,11.457 71,11.457C70.538,11.457 70.211,11.581 70.017,11.83C69.909,11.968 69.839,12.173 69.806,12.444L68.98,12.444C68.997,11.796 69.206,11.345 69.609,11.093C70.016,10.837 70.486,10.709 71.02,10.709C71.639,10.709 72.142,10.827 72.529,11.063C72.912,11.299 73.104,11.666 73.104,12.164L73.104,15.197C73.104,15.289 73.122,15.362 73.158,15.418C73.197,15.474 73.278,15.502 73.399,15.502C73.438,15.502 73.482,15.5 73.531,15.497C73.581,15.49 73.633,15.482 73.689,15.472L73.689,16.126C73.551,16.165 73.446,16.19 73.374,16.2C73.302,16.209 73.204,16.214 73.079,16.214C72.775,16.214 72.553,16.106 72.416,15.89C72.344,15.775 72.293,15.613 72.263,15.403C72.083,15.639 71.824,15.844 71.487,16.018C71.149,16.191 70.777,16.278 70.371,16.278C69.883,16.278 69.483,16.131 69.172,15.836C68.864,15.538 68.71,15.166 68.71,14.72C68.71,14.232 68.862,13.853 69.167,13.585C69.472,13.316 69.871,13.151 70.366,13.088L71.777,12.911Z" style="fill:white;fill-rule:nonzero;"/>
    <path d="M74.483,10.837L75.323,10.837L75.323,11.746C75.392,11.57 75.561,11.355 75.829,11.103C76.098,10.847 76.408,10.719 76.758,10.719C76.775,10.719 76.803,10.721 76.842,10.724C76.881,10.727 76.948,10.734 77.043,10.744L77.043,11.678C76.991,11.668 76.942,11.661 76.896,11.658C76.853,11.655 76.806,11.653 76.753,11.653C76.308,11.653 75.965,11.797 75.726,12.086C75.487,12.371 75.367,12.7 75.367,13.074L75.367,16.101L74.483,16.101L74.483,10.837Z" style="fill:white;fill-rule:nonzero;"/>
    <path d="M18.478,24.017C21.991,26.861 27.015,26.861 30.528,24.017L29.17,22.339C26.449,24.543 22.557,24.543 19.836,22.339L18.478,24.017Z" style="fill:white;fill-rule:nonzero;"/>
    <rect x="19.941" y="17.407" width="2.159" height="2.916" style="fill:white;fill-rule:nonzero;"/>
    <rect x="26.638" y="17.407" width="2.158" height="2.916" style="fill:white;fill-rule:nonzero;"/>
    <path d="M35.748,21.323C35.748,27.76 30.53,32.979 24.092,32.979C17.655,32.979 12.436,27.76 12.436,21.323C12.436,14.886 17.655,9.667 24.092,9.667C30.53,9.667 35.748,14.886 35.748,21.323ZM33.59,21.323C33.59,26.568 29.337,30.821 24.092,30.821C18.847,30.821 14.595,26.568 14.595,21.323C14.595,16.078 18.847,11.825 24.092,11.825C29.337,11.825 33.59,16.078 33.59,21.323Z" style="fill:white;"/>
</svg>
