<?xml version="1.0" encoding="UTF-8" standalone="no"?>
<!DOCTYPE svg PUBLIC "-//W3C//DTD SVG 1.1//EN" "http://www.w3.org/Graphics/SVG/1.1/DTD/svg11.dtd">
<svg width="100%" height="100%" viewBox="0 0 132 42" version="1.1" xmlns="http://www.w3.org/2000/svg" xmlns:xlink="http://www.w3.org/1999/xlink" xml:space="preserve" xmlns:serif="http://www.serif.com/" style="fill-rule:evenodd;clip-rule:evenodd;">
    <path d="M1.451,0.614L116.594,0.614C124.602,0.614 131.094,7.105 131.094,15.114L131.094,41.288L15.951,41.288C7.943,41.288 1.451,34.796 1.451,26.788L1.451,0.614Z" style="fill-rule:nonzero;stroke:rgb(172,172,172);stroke-width:1px;"/>
    <path d="M18.925,23.983C22.438,26.828 27.462,26.828 30.976,23.983L29.617,22.305C26.896,24.509 23.005,24.509 20.284,22.305L18.925,23.983Z" style="fill:white;fill-rule:nonzero;"/>
    <rect x="20.388" y="17.373" width="2.158" height="2.916" style="fill:white;fill-rule:nonzero;"/>
    <rect x="27.086" y="17.373" width="2.158" height="2.916" style="fill:white;fill-rule:nonzero;"/>
    <path d="M36.196,21.289C36.196,27.727 30.977,32.945 24.54,32.945C18.102,32.945 12.884,27.727 12.884,21.289C12.884,14.852 18.102,9.633 24.54,9.633C30.977,9.633 36.196,14.852 36.196,21.289ZM34.038,21.289C34.038,26.535 29.785,30.787 24.54,30.787C19.294,30.787 15.042,26.535 15.042,21.289C15.042,16.044 19.294,11.792 24.54,11.792C29.785,11.792 34.038,16.044 34.038,21.289Z" style="fill:white;"/>
    <path d="M78.264,7.423C78.426,7.68 78.603,8.006 78.719,8.289L82.532,8.289L82.532,10.081L81.818,10.081L81.818,8.953L74.671,8.953L74.671,10.081L73.976,10.081L73.976,8.289L77.83,8.289C77.732,8.068 77.616,7.836 77.499,7.635L78.264,7.423Z" style="fill:white;fill-rule:nonzero;"/>
    <path d="M75.174,9.94C76,9.769 76.966,9.517 77.53,9.276L78.003,9.769C77.401,9.991 76.603,10.194 75.859,10.343L75.859,11.017L77.822,11.017L77.822,11.561L75.859,11.561L75.859,12.245L80.62,12.245L80.62,11.561L78.697,11.561L78.697,11.017L80.62,11.017L80.62,10.343L78.516,10.343L78.516,9.789L81.314,9.789L81.314,12.809L77.202,12.809C77.049,13.036 76.873,13.255 76.679,13.463L82.251,13.463C82.251,13.463 82.241,13.664 82.23,13.765C82.12,15.507 81.999,16.191 81.757,16.453C81.576,16.634 81.395,16.694 81.113,16.714C80.861,16.735 80.378,16.725 79.875,16.704C79.865,16.503 79.784,16.221 79.664,16.04C80.157,16.08 80.62,16.09 80.781,16.08C80.962,16.09 81.053,16.08 81.133,16C81.285,15.839 81.381,15.329 81.472,14.077L76.019,14.077C75.435,14.555 74.766,14.955 74.107,15.255C74.016,15.104 73.795,14.792 73.654,14.651C74.692,14.248 75.73,13.599 76.372,12.809L75.174,12.809L75.174,9.94Z" style="fill:white;fill-rule:nonzero;"/>
    <path d="M74.943,16.181C75.345,15.728 75.688,14.973 75.879,14.389L76.483,14.631C76.271,15.235 75.959,16 75.557,16.483L74.943,16.181Z" style="fill:white;fill-rule:nonzero;"/>
    <path d="M77.258,16.312C77.258,15.849 77.117,15.114 76.916,14.54L77.499,14.47C77.721,15.033 77.872,15.758 77.872,16.231L77.258,16.312Z" style="fill:white;fill-rule:nonzero;"/>
    <path d="M78.838,16.11C78.758,15.688 78.486,15.033 78.194,14.55L78.738,14.389C79.05,14.872 79.341,15.507 79.422,15.929L78.838,16.11Z" style="fill:white;fill-rule:nonzero;"/>
    <path d="M80.318,15.668C80.167,15.335 79.794,14.862 79.452,14.53L79.966,14.289C80.308,14.611 80.69,15.074 80.841,15.396L80.318,15.668Z" style="fill:white;fill-rule:nonzero;"/>
    <path d="M63.427,12.829L63.628,13.564L63.816,13.498C64.106,13.397 64.42,13.287 64.746,13.173L64.746,15.809C64.746,15.939 64.695,15.98 64.564,15.98C64.454,15.98 64.081,15.98 63.648,15.97C63.749,16.181 63.85,16.503 63.88,16.694C64.494,16.694 64.876,16.674 65.128,16.553C65.37,16.433 65.46,16.221 65.46,15.798L65.46,12.923C65.816,12.798 66.176,12.671 66.527,12.547L66.417,11.852C66.098,11.964 65.775,12.074 65.46,12.18L65.46,10.212L66.417,10.212L66.417,9.507L65.46,9.507L65.46,7.484L64.746,7.484L64.746,9.507L63.578,9.507L63.578,10.212L64.746,10.212L64.746,12.417C64.248,12.579 63.793,12.722 63.427,12.829Z" style="fill:white;fill-rule:nonzero;"/>
    <path d="M67.655,11.379C66.93,11.379 66.749,11.118 66.749,10.383L66.749,7.897L69.386,7.897L69.386,9.89L67.383,9.89L67.383,10.393C67.383,10.705 67.433,10.796 67.655,10.796L68.933,10.796C69.114,10.796 69.386,10.786 69.547,10.755C69.554,10.808 69.56,10.871 69.567,10.938C69.582,11.075 69.597,11.227 69.618,11.329C69.477,11.369 69.215,11.379 68.943,11.379L67.655,11.379ZM67.383,8.42L68.772,8.42L68.772,9.366L67.383,9.366L67.383,8.42Z" style="fill:white;"/>
    <path d="M70.725,11.329C70.01,11.329 69.829,11.077 69.829,10.343L69.829,7.897L72.476,7.897L72.476,9.859L70.463,9.859L70.463,10.353C70.463,10.655 70.513,10.755 70.745,10.755L72.084,10.755C72.265,10.755 72.567,10.735 72.728,10.695C72.738,10.876 72.768,11.138 72.788,11.279C72.647,11.329 72.376,11.329 72.094,11.329L70.725,11.329ZM70.463,8.42L71.872,8.42L71.872,9.336L70.463,9.336L70.463,8.42Z" style="fill:white;"/>
    <path d="M68.46,14.852C67.896,15.416 66.93,15.939 66.064,16.272C66.235,16.392 66.517,16.634 66.648,16.765C67.494,16.382 68.52,15.748 69.144,15.114L68.46,14.852Z" style="fill:white;fill-rule:nonzero;"/>
    <path d="M70.101,15.184C70.866,15.658 71.852,16.352 72.346,16.785L72.97,16.382C72.446,15.939 71.45,15.275 70.695,14.822L70.101,15.184Z" style="fill:white;fill-rule:nonzero;"/>
    <path d="M51.952,16.714C51.267,16.332 50.12,15.849 48.982,15.476L49.455,14.973C50.593,15.335 51.831,15.809 52.566,16.191L51.952,16.714Z" style="fill:white;fill-rule:nonzero;"/>
    <path d="M43.395,16.181C44.472,15.919 45.821,15.406 46.496,14.973L47.19,15.416C46.345,15.929 44.996,16.453 43.919,16.735C43.808,16.584 43.556,16.322 43.395,16.181Z" style="fill:white;fill-rule:nonzero;"/>
    <path d="M57.685,7.708C57.686,7.639 57.688,7.574 57.689,7.514L58.525,7.514L58.524,7.558C58.516,7.917 58.505,8.403 58.46,8.969C58.602,10.152 59.215,14.422 62.803,16.02C62.581,16.191 62.36,16.453 62.249,16.664C59.718,15.482 58.628,12.997 58.133,11.116C57.659,13.131 56.587,15.384 54.126,16.704C53.995,16.503 53.743,16.272 53.512,16.11C57.547,14.069 57.647,9.44 57.685,7.708Z" style="fill:white;fill-rule:nonzero;"/>
    <path d="M66.789,12.265L66.789,12.909L68.138,12.909L68.138,14.077L66.366,14.077L66.366,14.721L72.778,14.721L72.778,14.077L71.208,14.077L71.208,12.909L72.547,12.909L72.547,12.265L71.208,12.265L71.208,11.581L70.513,11.581L70.513,12.265L68.822,12.265L68.822,11.601L68.138,11.601L68.138,12.265L66.789,12.265ZM68.822,14.077L68.822,12.909L70.513,12.909L70.513,14.077L68.822,14.077Z" style="fill:white;"/>
    <path d="M43.587,14.812L43.587,14.168L45.036,14.168L45.036,9.618L47.573,9.618L47.573,8.984L43.869,8.984L43.869,8.329L47.573,8.329L47.573,7.494L48.318,7.494L48.318,8.329L52.264,8.329L52.264,8.984L48.318,8.984L48.318,9.618L51.106,9.618L51.106,14.168L52.525,14.168L52.525,14.812L43.587,14.812ZM45.761,14.168L50.351,14.168L50.351,13.463L45.761,13.463L45.761,14.168ZM45.761,12.98L50.351,12.98L50.351,12.376L45.761,12.376L45.761,12.98ZM45.761,11.883L50.351,11.883L50.351,11.289L45.761,11.289L45.761,11.883ZM45.761,10.816L50.351,10.816L50.351,10.151L45.761,10.151L45.761,10.816Z" style="fill:white;"/>
    <path d="M106.37,26.224C106.37,25.968 106.386,25.407 106.386,25.407L102.461,25.407L102.461,23.885L106.624,23.885C106.816,26.198 107.162,28.408 107.705,30.205C106.827,31.177 105.807,31.992 104.656,32.617C105.152,33.066 106.001,34.043 106.338,34.54C107.191,34.002 107.985,33.361 108.716,32.629C109.398,33.785 110.256,34.476 111.321,34.476C112.971,34.476 113.724,33.803 114.076,30.678C113.452,30.438 112.634,29.893 112.106,29.349C112.026,31.303 111.833,32.104 111.513,32.104C111.127,32.104 110.735,31.569 110.376,30.664C111.532,29.05 112.46,27.157 113.131,25.055L110.776,24.494C110.46,25.594 110.046,26.626 109.539,27.575C109.324,26.458 109.149,25.202 109.033,23.885L113.916,23.885L113.916,21.594L112.212,21.594L113.019,20.761C112.458,20.232 111.337,19.527 110.52,19.095L109.11,20.488C109.614,20.799 110.211,21.203 110.712,21.594L108.894,21.594C108.87,20.857 108.866,20.116 108.885,19.383L106.434,19.383C106.437,20.114 106.453,20.854 106.483,21.594L100.009,21.594L100.009,26.401C100.009,28.5 99.929,31.335 98.743,33.226C99.272,33.498 100.33,34.364 100.73,34.828C101.547,33.599 101.991,31.887 102.225,30.182C102.543,30.761 102.782,31.633 102.813,32.297C103.55,32.297 104.223,32.281 104.656,32.2C105.136,32.104 105.505,31.944 105.857,31.48C106.242,30.967 106.322,29.493 106.37,26.224ZM102.233,30.122C102.352,29.228 102.415,28.338 102.442,27.522L104.1,27.522C104.065,29.117 104.005,29.778 103.87,29.974C103.742,30.134 103.598,30.182 103.39,30.182C103.141,30.182 102.712,30.167 102.233,30.122Z" style="fill:white;"/>
    <path d="M87.853,22.155C88.118,21.473 88.355,20.771 88.554,20.072L86.134,19.527C85.59,21.69 84.564,23.885 83.33,25.199C83.923,25.519 84.965,26.208 85.429,26.609C85.909,26.011 86.382,25.265 86.822,24.43L89.899,24.43L89.899,26.881L85.75,26.881L85.75,29.124L89.899,29.124L89.899,31.88L83.843,31.88L83.843,34.155L98.423,34.155L98.423,31.88L92.335,31.88L92.335,29.124L96.933,29.124L96.933,26.881L92.335,26.881L92.335,24.43L97.574,24.43L97.574,22.155L92.335,22.155L92.335,19.367L89.899,19.367L89.899,22.155L87.853,22.155Z" style="fill:white;fill-rule:nonzero;"/>
    <path d="M48.193,28.401C48.287,27.973 48.336,27.565 48.349,27.202L44.684,27.202L44.684,25.103L48.353,25.103L48.353,23.501L44.523,23.501L44.523,21.338L48.353,21.338L48.353,19.447L50.66,19.447L50.66,26.961C50.66,29.765 49.795,32.922 45.869,34.812C45.485,34.251 44.764,33.53 44.203,33.082C45.619,32.543 46.585,31.668 47.227,30.704C46.5,30.82 45.792,30.932 45.131,31.036L44.251,31.175L43.834,28.852C44.966,28.755 46.549,28.583 48.193,28.401Z" style="fill:white;fill-rule:nonzero;"/>
    <path d="M73.613,34.17L68.552,19.879L65.178,19.879L60.078,34.17L63.2,34.17L64.189,31.232L69.453,31.232L70.374,34.17L73.613,34.17ZM66.836,23.146L68.619,28.77L64.993,28.77L66.836,23.146Z" style="fill:white;"/>
    <path d="M54.617,19.447L54.617,21.338L58.815,21.338L58.815,23.501L54.617,23.501L54.617,25.103L58.43,25.103L58.43,27.202L54.617,27.202L54.617,28.836L59.103,28.836L59.103,30.999L54.617,30.999L54.617,34.588L52.278,34.588L52.278,19.447L54.617,19.447Z" style="fill:white;fill-rule:nonzero;"/>
    <path d="M76.158,22.31L76.158,31.742L74.398,31.742L74.398,34.173L80.68,34.173L80.68,31.742L79.125,31.742L79.125,22.31L80.68,22.31L80.68,19.879L74.398,19.879L74.398,22.31L76.158,22.31Z" style="fill:white;fill-rule:nonzero;"/>
</svg>
